<svg width="400" height="400" xmlns="http://www.w3.org/2000/svg"><g fill="#52BAB3" fill-rule="nonzero"><path d="M299.538 186.375l-24.813-24.837c-10.205-10.214-3.969-20.996 7.152-21.65 18.315-1.136 28.607-20.69 13.649-36.972-16.266-14.929-35.715-4.671-36.85 13.618-.697 11.131-11.555 17.417-21.716 7.246l-24.29-24.313c-7.283-7.29-19.1-7.29-26.383 0l-24.596 24.619c-10.204 10.214-21.019 3.885-21.717-7.246-1.134-18.333-20.757-28.766-37.023-13.793-15.002 16.325-4.58 35.967 13.736 37.102 11.12.699 17.444 11.568 7.283 21.782l-24.508 24.488c-7.283 7.29-7.283 19.118 0 26.408l24.29 24.313c10.204 10.17 4.143 20.778-6.977 21.476-18.316 1.135-28.564 20.647-13.606 36.928 16.266 14.972 35.671 4.758 36.805-13.575.698-11.13 11.339-17.242 21.543-7.071l24.508 24.531c7.413 7.42 19.537 7.42 26.95.044l17.182-17.198 7.37-7.377c9.637-10.084 3.401-20.69-7.588-21.389-18.316-1.135-28.695-20.778-13.737-37.06 16.266-14.971 35.89-4.539 37.024 13.794.697 11 11.25 17.199 21.324 7.552l6.672-6.679 17.967-17.983.087-.088.262-.262c7.283-7.29 7.283-19.119 0-26.408z"/><path d="M0 0v400h400V0H0zm367.055 366.789H32.964V33.248h334.09v333.54z"/></g></svg>