<svg width="400" height="400" xmlns="http://www.w3.org/2000/svg"><g fill="#52BAB3" fill-rule="nonzero"><path d="M200.17 282.705c.272.018.547.039.826.039h62.905c7.356 0 13.343-5.762 13.343-12.842V129.555c0-7.08-5.987-12.842-13.343-12.842h-62.905c-.277 0-.554.024-.826.039V100L77.394 115.77v168.024l122.776 16.178v-17.267zm.826-158.652h62.905c3.153 0 5.718 2.47 5.718 5.504v140.348c0 3.035-2.565 5.504-5.718 5.504h-62.905c-.28 0-.554-.043-.826-.083v-62.272l8.626 3.86v-6.21l-8.626-3.634v-11.467l8.626-3.636v-6.208l-8.626 3.858v-65.485c.272-.038.544-.079.826-.079zm-94.588 93.093l-5.656-.136v-10.918l-9.077-.033v10.732l-5.38-.129V191.28l5.38-.135v9.853l9.077-.056v-10.028l5.656-.142v26.374zm23.554-21.741l-7.437.115v22.013l-6.039-.147V195.62l-6.973.113v-5.038l20.451-.52v5.23h-.002zM158.27 218.4l-.454-11.083c-.13-3.476-.268-7.68-.268-11.883l-.138.004a148.36 148.36 0 0 1-3.366 11.177l-3.633 11.126-5.199-.118-3.1-10.97c-.935-3.299-1.914-7.29-2.595-10.944l-.086.002c-.168 3.784-.297 8.105-.51 11.592l-.504 10.617-5.898-.142 1.788-27.715 8.578-.215 2.848 9.381c.91 3.276 1.824 6.812 2.48 10.148l.13.002c.835-3.291 1.847-7.058 2.815-10.24l3.198-9.585 9.029-.23 1.706 29.24-6.821-.164zm32.85.79l-20.55-.494v-29.553l7.309-.185v24.229l13.242.197v5.806z"/><path d="M232.467 176.796h-6.143l-13.019 42.457h6.143zM265.203 198.64L236 185.757v6.206l22.576 9.313v.119L236 210.702v6.208l29.203-12.882z"/><path d="M0 0v400h400V0H0zm367.055 366.789H32.964V33.248h334.09v333.54z"/></g></svg>