<?xml version="1.0" encoding="UTF-8"?>
<svg width="200px" height="200px" viewBox="0 0 200 200" version="1.1" xmlns="http://www.w3.org/2000/svg" xmlns:xlink="http://www.w3.org/1999/xlink">
    <!-- Generator: Sketch 48.1 (47250) - http://www.bohemiancoding.com/sketch -->
    <title>Time</title>
    <desc>Created with Sketch.</desc>
    <defs></defs>
    <g id="Page-1" stroke="none" stroke-width="1" fill="none" fill-rule="evenodd">
        <g id="Time" fill="#52BAB3" fill-rule="nonzero">
            <path d="M117.9375,102.1965 C119.3225,101.8175 122.565,100.9285 124.0725,96.7315 L127.178,88.0865 L128.427,88.488 C128.999,88.6725 129.626,88.38 129.8205,87.839 L131.487,83.2005 C131.682,82.659 131.373,82.066 130.8005,81.882 L90.539,68.923 C89.9675,68.739 89.34,69.0315 89.1455,69.5725 L87.4795,74.2105 C87.285,74.7515 87.5945,75.3455 88.1655,75.5295 L89.415,75.9315 L86.2535,84.7345 C84.7605,88.89 85.7485,90.2935 87.6215,92.417 L95.7685,101.652 L94.8605,104.1805 C91.743,104.8205 83.5965,106.501 82.5,106.801 C81.115,107.1805 77.8715,108.0685 76.364,112.266 L73.6905,119.7095 L72.4405,119.3075 C71.8695,119.1235 71.242,119.4155 71.047,119.957 L69.382,124.595 C69.187,125.1365 69.496,125.73 70.068,125.914 L110.3295,138.8735 C110.9005,139.057 111.528,138.765 111.723,138.2235 L113.388,133.586 C113.583,133.0445 113.274,132.451 112.702,132.2665 L111.453,131.8645 L114.183,124.263 C115.6755,120.108 114.6885,118.704 112.815,116.581 L104.6685,107.346 L105.5755,104.8175 C108.6935,104.1775 116.84,102.4975 117.9375,102.1965 Z M100.9225,108.9375 L109.7815,118.979 C110.4615,119.7495 110.8215,120.1705 110.919,120.5555 C111.0365,121.018 110.879,121.837 110.4405,123.058 L107.7105,130.66 L77.433,120.9145 L80.106,113.471 C80.95,111.121 82.4805,110.702 83.5975,110.396 C84.471,110.157 91.965,108.6015 96.7895,107.6135 C97.467,107.475 98.0195,107.009 98.2425,106.387 L99.8685,101.862 C100.089872,101.242026 99.954007,100.55061 99.5145,100.0605 L90.6815,90.049 L90.655,90.018 C89.975,89.248 89.615,88.827 89.5175,88.4415 C89.4005,87.979 89.5565,87.1605 89.9955,85.939 L93.1575,77.136 L123.4355,86.8815 L120.3295,95.527 C119.486,97.877 117.9565,98.296 116.8395,98.602 C115.966,98.8415 108.4715,100.397 103.648,101.3845 C102.97,101.5235 102.417,101.9885 102.1935,102.611 L100.5685,107.136 C100.3465,107.754 100.481,108.436 100.9225,108.9375 Z" id="Shape"></path>
            <path d="M124.842,144.62 C123.9585,145.0935 123.047,145.5475 122.135,145.9685 C121.9875,146.0365 121.845,146.1115 121.7075,146.192 C121.559371,146.240725 121.413699,146.296624 121.271,146.3595 C117.328706,148.09935 113.184167,149.338983 108.934,150.0495 C108.8795,150.057 108.825,150.06 108.77,150.0695 C107.7675,150.2375 106.7475,150.377 105.7385,150.4865 C105.7275,150.488 105.7165,150.4905 105.7055,150.4915 C103.853,150.6855 101.979,150.784 100.0855,150.784 C78.2565,150.784 59.6395,137.525 52.742,119.069 C52.638,118.7875 52.5335,118.5065 52.4345,118.2245 C50.7436315,113.417267 49.8808818,108.357932 49.883,103.262 C49.8809689,98.1553604 50.7474912,93.0855708 52.4455,88.2695 C52.482,88.1665 52.5165,88.0645 52.5535,87.961 C52.6990526,87.5576764 52.8504016,87.1564682 53.0075,86.7575 C58.7395,72.1535 71.8505,60.9185 88.029,57.129 C88.039,57.1265 88.0495,57.126 88.06,57.124 C88.299,57.0675 88.54,57.013 88.7815,56.96 C88.8085,56.9545 88.8345,56.945 88.8605,56.939 C92.46399,56.1592276 96.1391384,55.7583815 99.826,55.743 L99.8695,60.629 C99.883,62.146 100.8945,62.584 102.1165,61.604 L113.0195,52.8555 C114.241,51.875 114.228,50.2855 112.9875,49.3245 L101.9315,40.75 C100.6915,39.789 99.6885,40.243 99.702,41.76 L99.7455,46.636 C83.893,46.7195 69.003,52.599 57.7835,63.219 C56.6869779,64.25744 55.6307011,65.3375678 54.617,66.457 L54.5985,66.4755 C54.5615,66.5165 54.526,66.559 54.4895,66.6 C45.6585,76.409 40.68,88.635 40.2895,101.605 C40.2795,101.705 40.2685,101.805 40.266,101.9085 C40.237782,103.060494 40.2469534,104.213101 40.2935,105.3645 C40.2965,105.448 40.308,105.5295 40.3165,105.6115 C40.8225,117.429 45.139,128.6015 52.7125,137.8555 C52.738,137.887 52.759,137.921 52.785,137.953 C53.5310864,138.863668 54.3052934,139.750929 55.1065,140.6135 C55.1585,140.669 55.215,140.717 55.268,140.77 C56.0810438,141.639889 56.9200905,142.485105 57.784,143.3045 C66.6665,151.713 77.85,157.1495 89.9905,159.091 L90.1015,159.111 C90.129,159.115 90.1565,159.1165 90.1835,159.121 C93.4593631,159.634196 96.770182,159.891806 100.086,159.8915 C108.905,159.8915 117.4005,158.115 125.336,154.6135 C125.5075,154.5385 125.67,154.4515 125.826,154.36 C126.0049,154.301721 126.180205,154.232935 126.351,154.154 C127.443523,153.64942 128.520987,153.112855 129.582,152.545 C131.894,151.306 132.7075,148.5275 131.3985,146.3385 C130.089,144.15 127.1535,143.3805 124.842,144.619 L124.842,144.62 Z M141.7725,76.757 C142.701,78.0655 144.221,78.7715 145.769,78.7715 C146.71757,78.7734752 147.64699,78.5046061 148.448,77.9965 C150.653,76.594 151.2395,73.765 149.758,71.6775 C149.078054,70.7197862 148.368204,69.7836583 147.6295,68.8705 C146.0155,66.873 142.9965,66.493 140.886,68.0205 C138.776,69.549 138.374,72.407 139.989,74.4045 C140.607502,75.170177 141.202284,75.9547154 141.7725,76.757 Z M147.882,88.7165 C148.192691,89.6364513 148.474496,90.5659069 148.727,91.5035 C149.282,93.5635 151.2385,94.9335 153.3855,94.9335 C153.778,94.9335 154.1785,94.888 154.577,94.7915 C157.1515,94.171 158.707,91.6915 158.0505,89.2545 C157.750269,88.1389855 157.414767,87.0332641 157.0445,85.939 C156.2345,83.544 153.5265,82.223 150.9965,82.9905 C148.466,83.758 147.0715,86.3215 147.8815,88.7165 L147.882,88.7165 Z M144.8175,133.915 C142.807,132.2705 139.77,132.4795 138.0325,134.3815 C137.363727,135.113445 136.672738,135.824777 135.9605,136.5145 C134.1035,138.314 134.139,141.1965 136.04,142.9545 C136.9755,143.8205 138.189,144.2515 139.401,144.2515 C140.651,144.2515 141.901,143.793 142.8425,142.88 C143.69073,142.058371 144.513615,141.210975 145.31,140.339 C147.047,138.436 146.827,135.56 144.8175,133.9155 L144.8175,133.915 Z M155.23,100.305 C152.57,100.229 150.3565,102.2065 150.278,104.72 C150.247678,105.686442 150.185645,106.651628 150.092,107.614 C149.849,110.1185 151.797,112.3355 154.443,112.5655 C154.5925,112.5785 154.741,112.5845 154.888,112.5845 C157.3455,112.5845 159.4445,110.8095 159.673,108.447 C159.784,107.3035 159.859,106.142 159.895,104.992 C159.973,102.4795 157.886,100.3795 155.23,100.3045 L155.23,100.305 Z M153.0905,117.9635 C150.6155,117.046 147.8255,118.2015 146.8565,120.5435 C146.483458,121.445254 146.082093,122.335029 145.653,123.2115 C144.5365,125.4935 145.585,128.2 147.996,129.2575 C148.632615,129.536814 149.320306,129.680856 150.0155,129.6805 C151.8315,129.6805 153.5695,128.702 154.383,127.04 C154.893721,125.996633 155.371458,124.937442 155.8155,123.864 C156.7845,121.5225 155.564,118.8805 153.0905,117.9635 Z M136.7075,64.1325 C138.289,62.111 137.84,59.2595 135.7045,57.7625 C134.725392,57.076628 133.726118,56.4200048 132.708,55.7935 C130.481,54.4225 127.501,55.02 126.053,57.1285 C124.605,59.2365 125.236,62.057 127.463,63.4285 C128.318112,63.9546589 129.157319,64.5062381 129.9795,65.0825 C130.817994,65.6672027 131.816276,65.9793624 132.8385,65.9765 C134.311,65.9765 135.7645,65.3385 136.7075,64.1325 Z" id="Shape"></path>
            <path d="M0,0 L0,200 L200,200 L200,0 L0,0 Z M183.5275,183.3945 L16.482,183.3945 L16.482,16.624 L183.5275,16.624 L183.5275,183.3945 Z" id="Shape"></path>
        </g>
    </g>
</svg>