<svg width="400" height="400" xmlns="http://www.w3.org/2000/svg"><g fill="#52BAB3" fill-rule="nonzero"><path d="M0 0v400h400V0H0zm367.055 366.789H32.964V33.248h334.09v333.54z"/><path d="M105.144 231.245c1.088 3.86 1.687 12.28 1.687 25.204 0 11.084.563 19.228 1.742 24.393 1.179 5.129 3.483 9.523 6.93 13.015 3.429 3.492 7.637 6.03 12.626 7.556 5.007 1.507 12.191 2.26 21.534 2.26h5.533v-25.276c-7.456 0-12.3-.478-14.55-1.433-2.23-.974-3.9-2.317-5.007-4.174-1.088-1.838-1.632-5.036-1.632-9.65 0-3.273-.29-10.718-.834-22.41-.418-7.646-1.325-13.75-2.722-18.308-1.378-4.596-3.374-8.475-5.986-11.673-2.595-3.217-5.933-5.993-10.014-8.364 4.626-3.052 8.054-5.938 10.322-8.787 2.25-2.776 4.1-6.343 5.552-10.662 1.433-4.32 2.34-9.964 2.703-16.912.616-12.316.961-20.7.961-25.13 0-4.338.527-7.426 1.56-9.21 1.052-1.764 2.649-3.105 4.826-4.006 2.177-.864 7.13-1.306 14.821-1.306v-25.148h-5.533c-9.089 0-15.746.644-19.955 1.912-6.24 1.894-10.994 4.467-14.278 7.721-3.265 3.272-5.515 7.592-6.766 12.978-1.234 5.35-1.833 14.853-1.833 28.42 0 8.4-.309 14.21-.87 17.592-.69 4.485-1.978 8.217-3.828 11.213-1.886 2.996-4.064 5.11-6.657 6.379-2.54 1.231-6.332 2.022-11.411 2.334v25.294c6.386.33 11.102 1.728 14.204 4.173 3.066 2.392 5.37 6.38 6.875 12.005zM178.291 280.07l5.629 12.175c6.205-2.249 11.347-5.356 15.388-9.25 4.041-3.895 6.765-8.319 8.209-13.236 1.461-4.954 2.183-11.7 2.183-20.182V228.57h-29.064v29.433h14.018c-.108 5.795-1.444 10.42-3.897 13.967-2.472 3.419-6.64 6.16-12.466 8.099zM181.062 145.306h29.561v29.388h-29.561zM261.989 301.83c6.275-1.913 11.099-4.451 14.382-7.744 3.265-3.255 5.496-7.614 6.675-13.022 1.178-5.426 1.832-14.936 1.832-28.566 0-8.314.308-14.163.852-17.53.743-4.488 2.05-8.222 3.917-11.202 1.833-2.98 4.009-5.132 6.566-6.383 2.558-1.25 6.348-2.023 11.408-2.299h-.036v-25.292c-6.403-.386-11.082-1.766-14.237-4.194-3.083-2.41-5.387-6.456-6.947-12.03-1.052-3.935-1.56-12.323-1.56-25.163 0-11.11-.598-19.221-1.813-24.354-1.197-5.206-3.5-9.546-6.892-13.096-3.41-3.532-7.6-6.015-12.587-7.505-5.024-1.472-12.206-2.226-21.546-2.226h-5.513v25.127c7.853 0 12.895.479 15.126 1.435 2.266.938 3.826 2.281 4.679 4.029.888 1.747 1.305 5.26 1.378 10.54.38 16.72.997 27.535 1.741 32.465 1.161 7.136 3.41 13.041 6.62 17.64 2.376 3.274 6.094 6.53 11.226 9.914-3.953 2.3-7.164 4.985-9.703 8.057-2.557 3.035-4.57 6.787-6.058 11.147-1.523 4.414-2.484 10.3-2.793 17.566-.562 12.085-.925 20.307-.925 24.575-.072 4.286-.562 7.32-1.668 9.123-1.106 1.822-2.757 3.164-5.024 4.139-2.285.956-7.163 1.397-14.6 1.397v25.292h5.568c9.031.055 15.706-.607 19.932-1.84z"/></g></svg>