<svg width="400" height="400" xmlns="http://www.w3.org/2000/svg"><g fill="#52BAB3" fill-rule="nonzero"><path d="M287.905 110.963C265.51 90.32 237.652 80 204.384 80c-34.972 0-64.783 11.724-89.383 35.222-24.6 23.497-36.926 52.707-36.926 87.678 0 33.518 11.724 62.326 35.122 86.476 23.498 24.149 55.063 36.223 94.794 36.223 23.95 0 47.448-4.91 70.495-14.78 7.515-3.206 11.173-11.824 8.116-19.39-3.156-7.815-12.074-11.422-19.84-8.116-20.041 8.618-39.682 12.927-58.82 12.927-30.463 0-54.062-9.27-70.796-27.857-16.684-18.538-25.051-40.332-25.051-65.333 0-27.155 8.968-49.801 26.855-67.988 17.836-18.137 39.832-27.255 65.885-27.255 24 0 44.29 7.465 60.825 22.395 16.533 14.93 24.8 33.719 24.8 56.365 0 15.481-3.807 28.407-11.373 38.678-7.565 10.321-15.432 15.432-23.598 15.432-4.41 0-6.614-2.355-6.614-7.115 0-3.858.3-8.367.852-13.577l9.319-76.205H226.98l-2.054 7.465c-8.167-6.664-17.135-10.02-26.855-10.02-15.432 0-28.659 6.162-39.631 18.437-11.023 12.275-16.484 28.107-16.484 47.446 0 18.889 4.86 34.17 14.63 45.743 9.77 11.624 21.494 17.386 35.222 17.386 12.275 0 22.747-5.16 31.465-15.432 6.563 9.87 16.233 14.78 29.01 14.78 18.788 0 35.02-8.166 48.699-24.55 13.678-16.333 20.542-36.073 20.542-59.17 0-29.26-11.173-54.26-33.619-74.902zm-73.851 115.284c-5.662 7.616-12.426 11.474-20.292 11.474-5.36 0-9.67-2.806-12.926-8.418-3.307-5.61-4.96-12.575-4.96-20.942 0-10.321 2.304-18.638 6.914-24.95 4.61-6.314 10.32-9.52 17.135-9.52 5.912 0 11.173 2.355 15.782 7.114 4.61 4.76 6.914 11.073 6.914 18.989-.05 9.87-2.906 18.588-8.567 26.253z"/><path d="M0 0v400h400V0H0zm367.055 366.789H32.964V33.248h334.09v333.54z"/></g></svg>