<svg width="400" height="400" xmlns="http://www.w3.org/2000/svg"><g fill="#52BAB3" fill-rule="nonzero"><path d="M251.14 230.604h-10.952l-4.107-4.107c13.691-15.06 21.906-35.598 21.906-57.504 0-49.288-39.705-88.993-88.994-88.993C119.705 80 80 119.705 80 168.993c0 49.289 39.705 88.994 88.993 88.994 21.906 0 42.443-8.215 57.504-21.906l4.107 4.106v10.953l68.456 68.457 20.537-20.537-68.456-68.456zm-82.147 0c-34.228 0-61.61-27.383-61.61-61.61 0-34.229 27.382-61.611 61.61-61.611 34.228 0 61.611 27.382 61.611 61.61 0 34.228-27.383 61.611-61.61 61.611z"/><path d="M0 0v400h400V0H0zm367.055 366.789H32.964V33.248h334.09v333.54z"/></g></svg>