<svg width="400" height="400" xmlns="http://www.w3.org/2000/svg"><g fill="#52BAB3" fill-rule="nonzero"><path d="M285.507 163.437L268.969 146.9 281.4 134.47a5.854 5.854 0 0 0 0-8.285l-16.645-16.645c-2.197-2.197-6.088-2.197-8.285 0l-12.428 12.432-16.54-16.541c-4.577-4.576-11.997-4.576-16.573 0-4.577 4.576-4.577 11.996 0 16.573l58.004 58.005c4.577 4.576 11.997 4.576 16.573 0 4.576-4.576 4.576-11.996 0-16.573zM167.07 281.995l-58.004-58.006c-4.577-4.576-11.996-4.576-16.573 0-4.576 4.577-4.576 11.997 0 16.573l16.541 16.542-12.408 12.403a5.855 5.855 0 0 0 0 8.285l16.645 16.64a5.838 5.838 0 0 0 4.143 1.717 5.84 5.84 0 0 0 4.142-1.717l12.403-12.403 16.539 16.539c4.576 4.576 11.996 4.576 16.572 0 4.577-4.577 4.577-11.997 0-16.573zM194.357 171.723l-35.573 35.694 24.86 24.86 35.572-35.695zM268.934 196.582l-74.577-74.577c-4.577-4.576-11.997-4.576-16.573 0-4.577 4.577-4.577 11.996 0 16.573l74.578 74.577c4.576 4.577 11.996 4.577 16.572 0 4.577-4.576 4.577-11.996 0-16.573zM200.216 265.422l-74.578-74.578c-4.576-4.576-11.996-4.576-16.572 0-4.577 4.577-4.577 11.997 0 16.573l74.578 74.578c4.576 4.576 11.996 4.576 16.572 0 4.577-4.577 4.577-11.997 0-16.573z"/><path d="M0 0v400h400V0H0zm367.055 366.789H32.964V33.248h334.09v333.54z"/></g></svg>