<svg width="400" height="400" xmlns="http://www.w3.org/2000/svg"><g fill="#52BAB3" fill-rule="nonzero"><path d="M131 184.667c17.889 35.777 48.556 65.166 84.333 84.333l28.111-28.111c3.833-3.833 8.945-5.11 12.778-2.556 14.056 5.111 29.389 7.667 46 7.667 7.667 0 12.778 5.111 12.778 12.778v43.444c0 7.667-5.111 12.778-12.778 12.778C182.112 315 85 217.889 85 97.778 85 90.11 90.111 85 97.778 85H142.5c7.667 0 12.778 5.111 12.778 12.778 0 15.333 2.555 30.666 7.666 46 1.278 3.833 0 8.944-2.555 12.778L131 184.666z"/><path d="M0 0v400h400V0H0zm367.055 366.789H32.964V33.248h334.09v333.54z"/></g></svg>