<svg width="400" height="400" xmlns="http://www.w3.org/2000/svg"><g fill="#52BAB3" fill-rule="nonzero"><path d="M123.112 115.037h-.019c-2.109 0-4.092.82-5.59 2.31a7.915 7.915 0 0 0-2.349 5.649v119.348c0 4.377 3.584 7.946 7.99 7.957 18.574.044 49.693 3.906 71.162 26.314V151.713c0-1.483-.38-2.877-1.097-4.03-17.62-28.303-51.48-32.603-70.097-32.646zM285.846 242.344V122.995a7.915 7.915 0 0 0-2.349-5.649 7.877 7.877 0 0 0-5.59-2.31h-.02c-18.615.044-52.475 4.344-70.096 32.647-.717 1.153-1.096 2.547-1.096 4.03v124.9c21.468-22.407 52.588-26.268 71.162-26.312 4.405-.012 7.989-3.581 7.989-7.957z"/><path d="M304.02 142.56h-5.785v99.784c0 11.175-9.128 20.286-20.349 20.314-15.755.038-41.732 3.11-60.13 20.478 31.819-7.77 65.362-2.72 84.479 1.626a7.98 7.98 0 0 0 6.765-1.538 7.906 7.906 0 0 0 3-6.217V150.518c0-4.388-3.58-7.958-7.98-7.958zM102.764 242.344V142.56h-5.786c-4.398 0-7.978 3.57-7.978 7.958v126.487c0 2.434 1.093 4.7 2.999 6.216a7.973 7.973 0 0 0 6.766 1.539c19.116-4.346 52.66-9.397 84.478-1.626-18.397-17.367-44.375-20.44-60.13-20.477-11.22-.027-20.349-9.138-20.349-20.313z"/><path d="M0 0v400h400V0H0zm367.055 366.789H32.964V33.248h334.09v333.54z"/></g></svg>