<svg width="400" height="400" xmlns="http://www.w3.org/2000/svg"><g fill="#52BAB3" fill-rule="nonzero"><path d="M235.875 204.393c2.77-.758 9.255-2.536 12.27-10.93l6.211-17.29 2.498.803c1.144.369 2.398-.216 2.787-1.298l3.333-9.277c.39-1.083-.228-2.269-1.373-2.637l-80.523-25.918c-1.143-.368-2.398.217-2.787 1.299l-3.332 9.276c-.389 1.082.23 2.27 1.372 2.638l2.499.804-6.323 17.606c-2.986 8.311-1.01 11.118 2.736 15.365l16.294 18.47-1.816 5.057c-6.235 1.28-22.528 4.641-24.721 5.241-2.77.759-9.257 2.535-12.272 10.93l-5.347 14.887-2.5-.804c-1.142-.368-2.397.216-2.787 1.299l-3.33 9.276c-.39 1.083.228 2.27 1.372 2.638l80.523 25.919c1.142.367 2.397-.217 2.787-1.3l3.33-9.275c.39-1.083-.228-2.27-1.372-2.639l-2.498-.804 5.46-15.203c2.985-8.31 1.011-11.118-2.736-15.364l-16.293-18.47 1.814-5.057c6.236-1.28 22.529-4.64 24.724-5.242zm-34.03 13.482l17.718 20.083c1.36 1.541 2.08 2.383 2.275 3.153.235.925-.08 2.563-.957 5.005l-5.46 15.204-60.555-19.491 5.346-14.887c1.688-4.7 4.749-5.538 6.983-6.15 1.747-.478 16.735-3.589 26.384-5.565 1.355-.277 2.46-1.209 2.906-2.453l3.252-9.05a3.589 3.589 0 0 0-.708-3.603l-17.666-20.023-.053-.062c-1.36-1.54-2.08-2.382-2.275-3.153-.234-.925.078-2.562.956-5.005l6.324-17.606 60.556 19.491-6.212 17.291c-1.687 4.7-4.746 5.538-6.98 6.15-1.747.479-16.736 3.59-26.383 5.565-1.356.278-2.462 1.208-2.909 2.453l-3.25 9.05c-.444 1.236-.175 2.6.708 3.603z"/><path d="M249.684 289.24c-1.767.947-3.59 1.855-5.414 2.697-.295.136-.58.286-.855.447a9.62 9.62 0 0 0-.873.335 103.294 103.294 0 0 1-24.674 7.38c-.109.015-.218.021-.328.04-2.005.336-4.045.615-6.063.834-.022.003-.044.008-.066.01-3.705.388-7.453.585-11.24.585-43.658 0-80.892-26.518-94.687-63.43-.208-.563-.417-1.125-.615-1.689a90.075 90.075 0 0 1-5.103-29.925 90.07 90.07 0 0 1 5.125-29.985c.073-.206.142-.41.216-.617a89.39 89.39 0 0 1 .908-2.407c11.464-29.208 37.686-51.678 70.043-59.257.02-.005.041-.006.062-.01.478-.113.96-.222 1.443-.328.054-.011.106-.03.158-.042a105.78 105.78 0 0 1 21.931-2.392l.087 9.772c.027 3.034 2.05 3.91 4.494 1.95l21.806-17.497c2.443-1.961 2.417-5.14-.064-7.062L203.863 81.5c-2.48-1.922-4.486-1.014-4.459 2.02l.087 9.752c-31.705.167-61.485 11.926-83.924 33.166a118.087 118.087 0 0 0-6.333 6.476l-.037.037c-.074.082-.145.167-.218.249-17.662 19.618-27.619 44.07-28.4 70.01-.02.2-.042.4-.047.607a106.534 106.534 0 0 0 .055 6.912c.006.167.029.33.046.494 1.012 23.635 9.645 45.98 24.792 64.488.051.063.093.131.145.195a113.647 113.647 0 0 0 4.643 5.321c.104.111.217.207.323.313a118.658 118.658 0 0 0 5.032 5.069c17.765 16.817 40.132 27.69 64.413 31.573l.222.04c.055.008.11.011.164.02a127.886 127.886 0 0 0 19.805 1.541c17.638 0 34.629-3.553 50.5-10.556.343-.15.668-.324.98-.507a9.564 9.564 0 0 0 1.05-.412 122.9 122.9 0 0 0 6.462-3.218c4.624-2.478 6.251-8.035 3.633-12.413-2.619-4.377-8.49-5.916-13.113-3.439zM283.545 153.514c1.857 2.617 4.897 4.029 7.993 4.029a9.964 9.964 0 0 0 5.358-1.55c4.41-2.805 5.583-8.463 2.62-12.638a112.22 112.22 0 0 0-4.257-5.614c-3.228-3.995-9.266-4.755-13.487-1.7-4.22 3.057-5.024 8.773-1.794 12.768a95.907 95.907 0 0 1 3.567 4.705zM295.764 177.433a93.017 93.017 0 0 1 1.69 5.574c1.11 4.12 5.023 6.86 9.317 6.86.785 0 1.586-.091 2.383-.284 5.149-1.241 8.26-6.2 6.947-11.074a109.376 109.376 0 0 0-2.012-6.631c-1.62-4.79-7.036-7.432-12.096-5.897-5.061 1.535-7.85 6.662-6.23 11.452zM289.635 267.83c-4.021-3.289-10.095-2.871-13.57.933a97.311 97.311 0 0 1-4.144 4.266c-3.714 3.599-3.643 9.364.159 12.88 1.871 1.732 4.298 2.594 6.722 2.594 2.5 0 5-.917 6.883-2.743a115.756 115.756 0 0 0 4.935-5.082c3.474-3.806 3.034-9.558-.985-12.847zM310.46 200.61c-5.32-.152-9.747 3.803-9.904 8.83a88.38 88.38 0 0 1-.372 5.788c-.486 5.009 3.41 9.443 8.702 9.903.299.026.596.038.89.038 4.915 0 9.113-3.55 9.57-8.275.222-2.287.372-4.61.444-6.91.156-5.025-4.018-9.225-9.33-9.375zM306.181 235.927c-4.95-1.835-10.53.476-12.468 5.16a92.902 92.902 0 0 1-2.407 5.336c-2.233 4.564-.136 9.977 4.686 12.092a10.04 10.04 0 0 0 4.039.846c3.632 0 7.108-1.957 8.735-5.281a110.662 110.662 0 0 0 2.865-6.352c1.938-4.683-.503-9.967-5.45-11.801zM273.415 128.265c3.163-4.043 2.265-9.746-2.006-12.74a120.677 120.677 0 0 0-5.993-3.938c-4.454-2.742-10.414-1.547-13.31 2.67-2.896 4.216-1.634 9.857 2.82 12.6a100.857 100.857 0 0 1 5.033 3.308 9.948 9.948 0 0 0 5.718 1.788c2.945 0 5.852-1.276 7.738-3.688z"/><path d="M0 0v400h400V0H0zm367.055 366.789H32.964V33.248h334.09v333.54z"/></g></svg>